<svg width="102" height="22" viewBox="0 0 102 22" fill="none" xmlns="http://www.w3.org/2000/svg">
<rect width="102" height="22" fill="white"/>
<path fill-rule="evenodd" clip-rule="evenodd" d="M102 5.94598H98.778V10.226H91.8V5.94598H88.579V10.226H82.942C82.4448 10.2263 81.9678 10.0293 81.6155 9.67841C81.2633 9.32748 81.0646 8.85119 81.063 8.35398V5.94598H77.842V8.35398C77.8407 8.85137 77.6421 9.32791 77.2898 9.67905C76.9376 10.0302 76.4604 10.2273 75.963 10.227C75.4656 10.2273 74.9884 10.0302 74.6362 9.67905C74.2839 9.32791 74.0853 8.85137 74.084 8.35398V5.94598H70.863V8.35398C70.8617 8.85137 70.6631 9.32791 70.3108 9.67905C69.9586 10.0302 69.4814 10.2273 68.984 10.227H67.105V5.94598H63.885V10.226H46.705V13.438H50.463V13.973C50.463 16.629 48.296 18.789 45.632 18.789C42.968 18.789 40.8 16.629 40.8 13.973V10.227H37.58V13.973C37.58 18.399 41.193 22 45.633 22C50.073 22 53.685 18.4 53.685 13.973V13.438H68.985C70.2814 13.4388 71.5293 12.9448 72.474 12.057C73.4191 12.9447 74.6674 13.4383 75.964 13.437C77.2603 13.438 78.5082 12.9445 79.453 12.057C80.3978 12.9446 81.6457 13.4381 82.942 13.437H102V5.94598Z" fill="black"/>
<path fill-rule="evenodd" clip-rule="evenodd" d="M84.702 19.297H88.556V22H91.86V16.054H84.702V19.297ZM102 0H95.439V2.973H102V0ZM26.842 11.297H10.737V5.946H26.842V11.297ZM26.842 22H0V16.649H26.842V22Z" fill="#FF5722"/>
</svg>
