<svg width="0" height="0" class="hidden">
  <symbol fill="none" xmlns="http://www.w3.org/2000/svg" viewBox="0 0 48 48" id="Location">
    <path fill-rule="evenodd" clip-rule="evenodd" d="M8.47826 20.7826C8.50707 12.3014 15.4058 5.44945 23.887 5.47818C32.3681 5.50708 39.2201 12.4058 39.1914 20.887V21.0609C39.087 26.5739 36.0087 31.6696 32.2348 35.6522C30.0765 37.8934 27.6663 39.8776 25.0522 41.5652C24.3532 42.1698 23.3164 42.1698 22.6174 41.5652C18.7204 39.0287 15.3001 35.8263 12.513 32.1044C10.029 28.8588 8.61859 24.9195 8.47826 20.8348V20.7826Z" stroke="#FF5722" stroke-width="1.5" stroke-linecap="round" stroke-linejoin="round"></path>
    <path opacity="0.4" d="M23.8348 26C26.553 26 28.7565 23.7965 28.7565 21.0783C28.7565 18.3601 26.553 16.1565 23.8348 16.1565C21.1166 16.1565 18.913 18.3601 18.913 21.0783C18.913 23.7965 21.1166 26 23.8348 26Z" stroke="#FF5722" stroke-width="1.5" stroke-linecap="round" stroke-linejoin="round"></path>
  </symbol>
  <symbol fill="none" xmlns="http://www.w3.org/2000/svg" viewBox="0 0 48 48" id="Message">
    <path opacity="0.4" d="M34.5355 17.1223L26.0046 23.9908C24.3901 25.2565 22.127 25.2565 20.5126 23.9908L11.9085 17.1223" stroke="#FF5722" stroke-width="1.5" stroke-linecap="round" stroke-linejoin="round"></path>
    <path fill-rule="evenodd" clip-rule="evenodd" d="M13.7757 6H32.6316C35.3504 6.03049 37.9381 7.17986 39.792 9.1804C41.646 11.181 42.6043 13.8581 42.4439 16.5882V29.644C42.6043 32.3742 41.646 35.0513 39.792 37.0518C37.9381 39.0524 35.3504 40.2017 32.6316 40.2322H13.7757C7.93593 40.2322 4 35.4813 4 29.644V16.5882C4 10.7509 7.93593 6 13.7757 6Z" stroke="#FF5722" stroke-width="1.5" stroke-linecap="round" stroke-linejoin="round"></path>
  </symbol>
  <symbol fill="none" xmlns="http://www.w3.org/2000/svg" viewBox="0 0 24 24" id="linkedin">
    <path d="M20.447 20.452H16.893V14.883C16.893 13.555 16.866 11.846 15.041 11.846C13.188 11.846 12.905 13.291 12.905 14.785V20.452H9.351V9H12.765V10.561H12.811C13.288 9.661 14.448 8.711 16.181 8.711C19.782 8.711 20.448 11.081 20.448 14.166V20.452H20.447ZM5.337 7.433C4.193 7.433 3.274 6.507 3.274 5.368C3.274 4.23 4.194 3.305 5.337 3.305C6.477 3.305 7.401 4.23 7.401 5.368C7.401 6.507 6.476 7.433 5.337 7.433ZM7.119 20.452H3.555V9H7.119V20.452ZM22.225 0H1.771C0.792 0 0 0.774 0 1.729V22.271C0 23.227 0.792 24 1.771 24H22.222C23.2 24 24 23.227 24 22.271V1.729C24 0.774 23.2 0 22.222 0H22.225Z" fill="#FF5722"></path>
  </symbol>
  <symbol fill="none" xmlns="http://www.w3.org/2000/svg" viewBox="0 0 24 24" id="telegram">
    <g clip-path="url(#clip0_8_58)">
      <path d="M11.944 3.26667e-05C8.77112 0.0148396 5.73324 1.28566 3.4949 3.53449C1.25656 5.78332 -3.4549e-05 8.82711 7.12435e-10 12C7.12441e-10 15.1826 1.26428 18.2349 3.51472 20.4853C5.76516 22.7357 8.8174 24 12 24C15.1826 24 18.2348 22.7357 20.4853 20.4853C22.7357 18.2349 24 15.1826 24 12C24 8.81743 22.7357 5.76519 20.4853 3.51475C18.2348 1.26431 15.1826 3.26667e-05 12 3.26667e-05C11.9813 -1.08889e-05 11.9627 -1.08889e-05 11.944 3.26667e-05V3.26667e-05ZM16.906 7.22403C17.006 7.22203 17.227 7.24703 17.371 7.36403C17.4667 7.44713 17.5277 7.56311 17.542 7.68903C17.558 7.78203 17.578 7.99503 17.562 8.16103C17.382 10.059 16.6 14.663 16.202 16.788C16.034 17.688 15.703 17.989 15.382 18.018C14.686 18.083 14.157 17.558 13.482 17.116C12.426 16.423 11.829 15.992 10.804 15.316C9.619 14.536 10.387 14.106 11.062 13.406C11.239 13.222 14.309 10.429 14.369 10.176C14.376 10.144 14.383 10.026 14.313 9.96403C14.243 9.90203 14.139 9.92303 14.064 9.94003C13.958 9.96403 12.271 11.08 9.003 13.285C8.523 13.615 8.09 13.775 7.701 13.765C7.273 13.757 6.449 13.524 5.836 13.325C5.084 13.08 4.487 12.951 4.539 12.536C4.566 12.32 4.864 12.099 5.432 11.873C8.93 10.349 11.262 9.34403 12.43 8.85903C15.762 7.47303 16.455 7.23203 16.906 7.22403V7.22403Z" fill="#FF5722"></path>
    </g>
    <defs>
      <clipPath id="clip0_8_58">
        <rect width="24" height="24" fill="white"></rect>
      </clipPath>
    </defs>
  </symbol>
  <symbol fill="none" xmlns="http://www.w3.org/2000/svg" viewBox="0 0 24 20" id="twitter">
    <path d="M23.953 2.32351C23.0545 2.71911 22.1026 2.98024 21.128 3.09851C22.1541 2.48176 22.9224 1.51455 23.291 0.375505C22.34 0.930505 21.286 1.33451 20.164 1.55951C19.4238 0.767935 18.4429 0.242926 17.3736 0.0660066C16.3044 -0.110913 15.2067 0.0701556 14.2509 0.581096C13.2952 1.09204 12.5349 1.90426 12.0881 2.89163C11.6412 3.879 11.533 4.98627 11.78 6.04151C7.69 5.84851 4.067 3.8835 1.64 0.915505C1.19879 1.66532 0.968664 2.52053 0.974 3.39051C0.974 5.10051 1.844 6.60351 3.162 7.48651C2.38086 7.46164 1.61697 7.25044 0.934 6.8705V6.93051C0.933557 8.0669 1.32627 9.16844 2.04551 10.0483C2.76474 10.9281 3.76621 11.532 4.88 11.7575C4.1583 11.9509 3.40241 11.9799 2.668 11.8425C2.98412 12.8205 3.59766 13.6754 4.42301 14.288C5.24837 14.9006 6.24435 15.2402 7.272 15.2595C5.53153 16.6255 3.38248 17.3668 1.17 17.3645C0.78 17.3645 0.391 17.3415 0 17.2975C2.25571 18.7418 4.87851 19.5085 7.557 19.5065C16.61 19.5065 21.555 12.0105 21.555 5.52151C21.555 5.31151 21.555 5.10151 21.54 4.89151C22.506 4.19637 23.3392 3.33332 24 2.34351L23.953 2.32351Z" fill="#FF5722"></path>
  </symbol>
  <symbol fill="none" xmlns="http://www.w3.org/2000/svg" viewBox="0 0 48 48" id="Calling">
    <path opacity="0.4" d="M28.706 5C36.108 5.822 41.956 11.662 42.786 19.064" stroke="#FF5722" stroke-width="1.5" stroke-linecap="round" stroke-linejoin="round"></path>
    <path opacity="0.4" d="M28.706 12.086C32.248 12.774 35.016 15.544 35.706 19.086" stroke="#FF5722" stroke-width="1.5" stroke-linecap="round" stroke-linejoin="round"></path>
    <path fill-rule="evenodd" clip-rule="evenodd" d="M22.063 24.9448C30.041 32.9207 31.8509 23.6934 36.9305 28.7696C41.8276 33.6655 44.6444 34.6464 38.4376 40.8494C37.6605 41.474 32.7225 48.9885 15.3689 31.6393C-1.98681 14.288 5.52313 9.34489 6.14789 8.5679C12.3675 2.34769 13.3336 5.17877 18.2308 10.0747C23.3083 15.153 14.0851 16.9688 22.063 24.9448Z" stroke="#FF5722" stroke-width="1.5" stroke-linecap="round" stroke-linejoin="round"></path>
  </symbol>
</svg>